<svg id="Layer_1" fill="#ffffff" viewBox="0 0 150 150" xmlns="http://www.w3.org/2000/svg" data-name="Layer 1"><path d="m93.821 140h-62.466a1 1 0 0 1 -.838-1.547 41.755 41.755 0 0 0 6.756-23.253c1.018-10.261-2.612-19.89-11.765-31.321a43.6 43.6 0 0 1 -9.771-24.295c-.793-11.771 2.354-21.816 9.625-30.708a51.119 51.119 0 0 1 29.06-17.185c23.678-5.028 44.331 1.254 56.672 17.233 8.767 11.014 12.45 20.953 11.25 30.377a17.108 17.108 0 0 0 2.988 11.82c5.8 8.447 8.84 13.947 9.036 16.348a3.8 3.8 0 0 1 -1.028 2.956c-1.832 1.988-5.692 2.556-7.885 2.717a14.188 14.188 0 0 1 1.363 4.786c0 1.5-1.3 2.459-2.541 3.039a3.92 3.92 0 0 1 .668 1.261 3.42 3.42 0 0 1 -1.054 3.836 6.514 6.514 0 0 0 -1.5 1.627 1.2 1.2 0 0 0 -.027 1.306c1.162 1.783 2.224 5.307.69 11.97a6.462 6.462 0 0 1 -3.2 4.241c-6 3.5-18.474.578-22.208-.415l-2.846 14.407a1 1 0 0 1 -.979.8zm-60.664-2h59.843l2.893-14.657a1 1 0 0 1 1.265-.765c.155.045 15.483 4.521 21.689.9a4.478 4.478 0 0 0 2.258-2.962c1.448-6.294.361-9.236-.416-10.43a3.2 3.2 0 0 1 .028-3.49 8.486 8.486 0 0 1 1.963-2.125 1.482 1.482 0 0 0 .361-1.637 1.461 1.461 0 0 0 -1.225-1.11 1 1 0 0 1 -.17-1.978c1.3-.27 3.173-1.073 3.173-1.82 0-1.43-1.3-4.288-1.8-5.268a1 1 0 0 1 .89-1.455c1.669 0 6.352-.388 7.961-2.136a1.783 1.783 0 0 0 .5-1.437c-.076-.928-1.075-4.285-8.691-15.379a19.1 19.1 0 0 1 -3.324-13.2c1.128-8.859-2.417-18.309-10.839-28.89-11.857-15.361-31.783-21.376-54.679-16.515a49.114 49.114 0 0 0 -27.927 16.493c-6.933 8.482-9.935 18.068-9.177 29.308a41.6 41.6 0 0 0 9.337 23.18c9.505 11.872 13.267 21.948 12.2 32.67a43.676 43.676 0 0 1 -6.113 22.703z"/><path d="m57.738 134.525h-10.409a1 1 0 0 1 0-2h10.409a1 1 0 0 1 0 2z"/><path d="m94.908 134.532-32.244-.013a1 1 0 0 1 0-2l32.244.013a1 1 0 0 1 0 2z"/><path d="m116.394 59.542a.917.917 0 0 1 -.128-.008 1 1 0 0 1 -.866-1.118c.86-6.752-1.685-14.109-7.78-22.49a1 1 0 1 1 1.617-1.176c6.41 8.813 9.074 16.637 8.147 23.918a1 1 0 0 1 -.99.874z"/><path d="m103.52 30.338a1 1 0 0 1 -.722-.308 40.485 40.485 0 0 0 -13.59-9.3 1 1 0 1 1 .778-1.842 42.459 42.459 0 0 1 14.256 9.756 1 1 0 0 1 -.722 1.692z"/><path d="m64.139 39.393a1 1 0 0 1 -.343-1.94l8.153-2.979a1.026 1.026 0 0 1 1.348.94 1 1 0 0 1 -.73.964l-8.085 2.954a1 1 0 0 1 -.343.061z"/><path d="m65.443 43.24a1 1 0 0 1 -.331-1.944l14.588-5.109a1 1 0 0 1 .661 1.888l-14.587 5.109a1.009 1.009 0 0 1 -.331.056z"/><path d="m66.882 47.485a1 1 0 0 1 -.331-1.944l18.688-6.541a1 1 0 0 1 .661 1.888l-18.687 6.541a1.014 1.014 0 0 1 -.331.056z"/><path d="m68.411 51.685a1 1 0 0 1 -.33-1.944l21.286-7.456a1 1 0 0 1 .661 1.888l-21.286 7.456a1 1 0 0 1 -.331.056z"/><path d="m69.752 55.952a1 1 0 0 1 -.33-1.944l23.126-8.1a1 1 0 0 1 .661 1.888l-23.126 8.104a1.009 1.009 0 0 1 -.331.052z"/><path d="m71.193 60.188a1 1 0 0 1 -.331-1.944l4.043-1.419a1 1 0 0 1 .662 1.887l-4.043 1.419a.981.981 0 0 1 -.331.057z"/><path d="m92.938 81.3a1 1 0 0 1 -.656-.245l-18.882-16.406a1 1 0 0 1 .114-1.595l21.022-13.547a1 1 0 0 1 1.424.37 29.29 29.29 0 0 1 3.428 13.747 28.959 28.959 0 0 1 -5.645 17.27 1 1 0 0 1 -.694.4 1.06 1.06 0 0 1 -.111.006zm-17.223-17.287 17.043 14.808a26.967 26.967 0 0 0 4.63-15.2 27.312 27.312 0 0 0 -2.7-11.835z"/><path d="m70.1 92.911a29.292 29.292 0 0 1 -11.39-56.276 1 1 0 0 1 1.336.6l9.089 26.8a1.184 1.184 0 0 0 .353.534l21.166 18.4a1 1 0 0 1 .05 1.463 29.009 29.009 0 0 1 -20.604 8.479zm-11.6-53.995a27.288 27.288 0 1 0 30.016 44.833l-20.332-17.669a3.146 3.146 0 0 1 -.948-1.427l-.032-.094z"/><path d="m71.52 61.168a1.017 1.017 0 0 1 -.33-.056 1.006 1.006 0 0 1 -.618-.623l-8.141-24.02a1 1 0 0 1 .709-1.292 29.29 29.29 0 0 1 30.313 10.772 1 1 0 0 1 -.256 1.445l-21.136 13.614a.991.991 0 0 1 -.541.16zm-6.837-24.288 7.372 21.753 19.134-12.324a27.3 27.3 0 0 0 -26.506-9.429z"/><path d="m92.44 58.63a1 1 0 0 1 -.552-1.835l.652-.43a1 1 0 1 1 1.1 1.669l-.652.43a.991.991 0 0 1 -.548.166z"/><path d="m93.284 63.85a1 1 0 0 1 -.552-1.835l.652-.43a1 1 0 0 1 1.1 1.669l-.652.43a1 1 0 0 1 -.548.166z"/><path d="m93.26 69.2a1 1 0 0 1 -.552-1.834l.652-.431a1 1 0 0 1 1.1 1.669l-.652.431a1 1 0 0 1 -.548.165z"/><path d="m91.917 74.92a1 1 0 0 1 -.552-1.835l.652-.43a1 1 0 1 1 1.1 1.669l-.652.43a1 1 0 0 1 -.548.166z"/><path d="m87.66 61.168a1 1 0 0 1 -.552-1.835l.651-.43a1 1 0 1 1 1.1 1.668l-.649.429a1 1 0 0 1 -.55.168z"/><path d="m88.5 66.387a1 1 0 0 1 -.552-1.834l.652-.431a1 1 0 0 1 1.1 1.669l-.652.431a1 1 0 0 1 -.548.165z"/><path d="m88.48 71.741a1 1 0 0 1 -.552-1.834l.652-.43a1 1 0 1 1 1.1 1.669l-.652.43a.993.993 0 0 1 -.548.165z"/><path d="m82.784 64.208a1 1 0 0 1 -.552-1.835l.652-.43a1 1 0 0 1 1.1 1.669l-.652.43a1 1 0 0 1 -.548.166z"/><path d="m83.628 69.428a1 1 0 0 1 -.552-1.835l.652-.43a1 1 0 0 1 1.1 1.669l-.652.43a1 1 0 0 1 -.548.166z"/></svg>